<svg width="16" height="16" viewBox="0 0 16 16" fill="none" xmlns="http://www.w3.org/2000/svg">
    <path d="M2 14V2H6C8.20914 2 10 3.79086 10 6C10 8.20914 8.20914 10 6 10H4V14H2ZM4 8H6C7.10457 8 8 7.10457 8 6C8 4.89543 7.10457 4 6 4H4V8Z" fill="#389FD6"/>
    <path d="M14 14C14 11.7909 12.2091 10 10 10H8V11H10C11.6569 11 13 12.3431 13 14H14Z" fill="#59A869"/>
    <path d="M12 14C12 13.4477 11.5523 13 11 13H10V14H11C11.5523 14 12 14.5523 12 15.1046" stroke="#EDA200"/>
    <path d="M14 6L11 2L8 6H14Z" fill="#DB5860"/>
</svg>
